<svg xmlns="http://www.w3.org/2000/svg" width="128" height="128" viewBox="0 0 128 128"><defs><style>.a,.b{fill:#00a2e2;}.a{opacity:0.3;}</style></defs><g transform="translate(-292 -1407)"><path class="a" d="M64,0A64,64,0,1,1,0,64,64,64,0,0,1,64,0Z" transform="translate(292 1407)"/><g transform="translate(-127 1081)"><path class="b" d="M482.687,359A25.714,25.714,0,0,0,457,384.686c0,21.317,23.186,36.052,24.174,36.669a2.854,2.854,0,0,0,3.025,0c.987-.616,24.174-15.352,24.174-36.669A25.714,25.714,0,0,0,482.687,359Zm0,56.482c-4.9-3.493-19.976-15.486-19.976-30.8a19.978,19.978,0,0,1,39.957,0C502.665,399.956,487.581,411.983,482.684,415.482Z"/><path class="b" d="M475.434,363.837a2.851,2.851,0,0,0-4.036,0l-8.562,8.562a2.842,2.842,0,0,0-.836,2.018v8.562a2.851,2.851,0,0,0,2.854,2.854h17.124a2.851,2.851,0,0,0,2.854-2.854v-8.562A2.853,2.853,0,0,0,484,372.4Zm3.69,16.288H467.708V375.6l5.708-5.708,5.708,5.708Z" transform="translate(9.27 7.416)"/></g></g></svg>